# WaveFront *.obj file (generated by Autodesk ATF)

mtllib ac6cb27a-cd3f-4d1b-91af-f5875a4cb0fa.mtl

g Body1

v 1.695259 3.978051 8.000000
v 8.585445 0.000000 8.000000
v 8.585445 0.000000 3.000000
v 1.695259 3.978051 3.000000
v 1.695259 0.000000 8.000000
v 1.695259 0.000000 3.000000
vt 0.000000 0.000000 0.000000
vt 795.610114 -0.000000 0.000000
vt -0.000000 500.000000 0.000000
vt 795.610114 500.000000 0.000000
vt 0.000000 0.000000 0.000000
vt 397.805057 -0.000000 0.000000
vt 0.000000 500.000000 0.000000
vt 397.805057 500.000000 0.000000
vt 0.000000 0.000000 0.000000
vt 689.018571 0.000000 0.000000
vt 0.000000 500.000000 0.000000
vt 689.018571 500.000000 0.000000
vt -344.509285 -198.902529 0.000000
vt 344.509285 -198.902529 0.000000
vt 344.509285 198.902529 0.000000
vt -344.509285 -198.902529 0.000000
vt 344.509285 -198.902529 0.000000
vt -344.509285 198.902529 0.000000
vn 50.000000 86.602540 0.000000
vn 50.000000 86.602540 0.000000
vn 50.000000 86.602540 0.000000
vn 50.000000 86.602540 0.000000
vn -100.000000 -0.000000 -0.000000
vn -100.000000 -0.000000 -0.000000
vn -100.000000 -0.000000 -0.000000
vn -100.000000 -0.000000 -0.000000
vn 0.000000 -100.000000 0.000000
vn 0.000000 -100.000000 0.000000
vn 0.000000 -100.000000 0.000000
vn 0.000000 -100.000000 0.000000
vn 0.000000 0.000000 -100.000000
vn 0.000000 0.000000 -100.000000
vn 0.000000 0.000000 -100.000000
vn -0.000000 0.000000 100.000000
vn -0.000000 0.000000 100.000000
vn -0.000000 0.000000 100.000000
usemtl Steel_-_Satin
f 1/1/1 2/2/2 4/3/3
f 4/3/3 2/2/2 3/4/4
f 5/5/5 1/6/6 6/7/7
f 6/7/7 1/6/6 4/8/8
f 2/9/9 5/10/10 3/11/11
f 3/11/11 5/10/10 6/12/12
f 3/13/13 6/14/14 4/15/15
f 5/16/16 2/17/17 1/18/18
# 6 vertices
# 18 texture params
# 18 normals
# 8 facets

# 1 groups
