# WaveFront *.obj file (generated by Autodesk ATF)

mtllib 6bb6e1d4-ea57-4bd6-876a-897c5b26b5a1.mtl

g Body1

v 0.176948 0.581604 0.000000
v -0.417028 -0.247237 0.000000
v -0.417028 -0.247237 0.200000
v 0.176948 0.581604 0.200000
v 0.435593 0.432525 0.000000
v 0.446485 0.467577 0.000000
v 0.448539 0.504223 0.000000
v 0.441631 0.540272 0.000000
v 0.426175 0.573564 0.000000
v 0.403097 0.602105 0.000000
v 0.373778 0.624187 0.000000
v 0.339974 0.638488 0.000000
v 0.303709 0.644151 0.000000
v 0.267154 0.640837 0.000000
v 0.232499 0.628745 0.000000
v 0.201818 0.608599 0.000000
v 0.201818 0.608599 0.200000
v 0.232499 0.628745 0.200000
v 0.267154 0.640837 0.200000
v 0.303709 0.644151 0.200000
v 0.339974 0.638488 0.200000
v 0.373778 0.624187 0.200000
v 0.403097 0.602105 0.200000
v 0.426175 0.573564 0.200000
v 0.441631 0.540272 0.200000
v 0.448539 0.504223 0.200000
v 0.446485 0.467577 0.200000
v 0.435593 0.432525 0.200000
v 0.015983 -0.497239 0.000000
v 0.015983 -0.497239 0.200000
v -0.438268 -0.294979 0.000000
v -0.449119 -0.346094 0.000000
v -0.449108 -0.398347 0.000000
v -0.438236 -0.449457 0.000000
v -0.416976 -0.497191 0.000000
v -0.386259 -0.539463 0.000000
v -0.347426 -0.574426 0.000000
v -0.302173 -0.600553 0.000000
v -0.252477 -0.616702 0.000000
v -0.200510 -0.622169 0.000000
v -0.148542 -0.616714 0.000000
v -0.098843 -0.600575 0.000000
v -0.053585 -0.574458 0.000000
v -0.014743 -0.539504 0.000000
v -0.014743 -0.539504 0.200000
v -0.053585 -0.574458 0.200000
v -0.098843 -0.600575 0.200000
v -0.148542 -0.616714 0.200000
v -0.200510 -0.622169 0.200000
v -0.252477 -0.616702 0.200000
v -0.302173 -0.600553 0.200000
v -0.347426 -0.574426 0.200000
v -0.386259 -0.539463 0.200000
v -0.416976 -0.497191 0.200000
v -0.438236 -0.449457 0.200000
v -0.449108 -0.398347 0.200000
v -0.449119 -0.346094 0.200000
v -0.438268 -0.294979 0.200000
vt 0.000000 0.000000 0.000000
vt 101.969837 0.000000 0.000000
vt 0.000000 20.000000 0.000000
vt 101.969837 20.000000 0.000000
vt -20.000000 -22.067083 0.000000
vt -0.000000 -22.067083 0.000000
vt -20.000000 -18.387419 0.000000
vt -0.000000 -18.387419 0.000000
vt -20.000000 -14.707756 0.000000
vt -0.000000 -14.707756 0.000000
vt -20.000000 -11.028092 0.000000
vt -0.000000 -11.028092 0.000000
vt -20.000000 -7.348429 0.000000
vt -0.000000 -7.348429 0.000000
vt -20.000000 -3.668765 0.000000
vt -0.000000 -3.668765 0.000000
vt -20.000000 0.010898 0.000000
vt -0.000000 0.010898 0.000000
vt -20.000000 3.690562 0.000000
vt -0.000000 3.690562 0.000000
vt -20.000000 7.370225 0.000000
vt -0.000000 7.370225 0.000000
vt -20.000000 11.049889 0.000000
vt -0.000000 11.049889 0.000000
vt -20.000000 14.729552 0.000000
vt -0.000000 14.729552 0.000000
vt -20.000000 18.409216 0.000000
vt -0.000000 18.409216 0.000000
vt -20.000000 22.088879 0.000000
vt -0.000000 22.088879 0.000000
vt 0.000000 0.000000 0.000000
vt 102.006582 0.000000 0.000000
vt -0.000000 20.000000 0.000000
vt 102.006582 20.000000 0.000000
vt -20.000000 39.277738 0.000000
vt -0.000000 39.277738 0.000000
vt -20.000000 44.512666 0.000000
vt -0.000000 44.512666 0.000000
vt -0.000000 49.747594 0.000000
vt -20.000000 49.747594 0.000000
vt -0.000000 54.982522 0.000000
vt -20.000000 54.982522 0.000000
vt -0.000000 60.217450 0.000000
vt -20.000000 60.217450 0.000000
vt -0.000000 65.452378 0.000000
vt -20.000000 65.452378 0.000000
vt -0.000000 70.687306 0.000000
vt -20.000000 70.687306 0.000000
vt -0.000000 75.922234 0.000000
vt -20.000000 75.922234 0.000000
vt -0.000000 81.157162 0.000000
vt -20.000000 81.157162 0.000000
vt -0.000000 86.392090 0.000000
vt -20.000000 86.392090 0.000000
vt -0.000000 91.627018 0.000000
vt -20.000000 91.627018 0.000000
vt -0.000000 96.861946 0.000000
vt -20.000000 96.861946 0.000000
vt -0.000000 102.096874 0.000000
vt -20.000000 102.096874 0.000000
vt -0.000000 107.331802 0.000000
vt -20.000000 107.331802 0.000000
vt -0.000000 112.566730 0.000000
vt -20.000000 112.566730 0.000000
vt -20.000000 117.801658 0.000000
vt -0.000000 117.801658 0.000000
vt -50.204414 24.452282 0.000000
vt -55.173632 22.836313 0.000000
vt -45.007829 24.999999 0.000000
vt -59.698393 20.222691 0.000000
vt -63.581023 16.725597 0.000000
vt -66.651900 12.497808 0.000000
vt 56.470699 15.002203 0.000000
vt -68.776867 7.724026 0.000000
vt -69.863090 2.612803 0.000000
vt 69.999996 0.085374 0.000000
vt -69.863115 -2.612567 0.000000
vt 56.492389 -14.851099 0.000000
vt -68.776941 -7.723800 0.000000
vt -66.652019 -12.497603 0.000000
vt -45.008067 -24.999999 0.000000
vt -63.581182 -16.725420 0.000000
vt -59.698585 -20.222552 0.000000
vt -55.173849 -22.836217 0.000000
vt -50.204646 -24.452232 0.000000
vt 60.072504 -14.041817 0.000000
vt 63.348896 -12.387303 0.000000
vt 66.125387 -9.986625 0.000000
vt 68.235732 -6.983526 0.000000
vt 69.553571 -3.557820 0.000000
vt 69.548277 3.727916 0.000000
vt 68.225462 7.151703 0.000000
vt 66.110756 10.151732 0.000000
vt 63.330779 12.548373 0.000000
vt 60.051986 14.198124 0.000000
vt 50.204646 -24.452232 0.000000
vt 55.173849 -22.836217 0.000000
vt 45.008067 -24.999999 0.000000
vt 59.698585 -20.222552 0.000000
vt 63.581182 -16.725420 0.000000
vt 66.652019 -12.497603 0.000000
vt -56.492389 -14.851099 0.000000
vt 68.776941 -7.723800 0.000000
vt 69.863115 -2.612567 0.000000
vt -69.999996 0.085374 0.000000
vt 69.863090 2.612803 0.000000
vt -56.470699 15.002203 0.000000
vt 68.776867 7.724026 0.000000
vt 66.651900 12.497808 0.000000
vt 45.007829 24.999999 0.000000
vt 63.581023 16.725597 0.000000
vt 59.698393 20.222691 0.000000
vt 55.173632 22.836313 0.000000
vt 50.204414 24.452282 0.000000
vt -60.051986 14.198124 0.000000
vt -63.330779 12.548373 0.000000
vt -66.110756 10.151732 0.000000
vt -68.225462 7.151703 0.000000
vt -69.548277 3.727916 0.000000
vt -69.553571 -3.557820 0.000000
vt -68.235732 -6.983526 0.000000
vt -66.125387 -9.986625 0.000000
vt -63.348896 -12.387303 0.000000
vt -60.072504 -14.041817 0.000000
vn -81.282944 58.250176 0.000000
vn -81.282944 58.250176 0.000000
vn -81.282944 58.250176 0.000000
vn -81.282944 58.250176 0.000000
vn 91.147475 -41.135603 0.000000
vn 91.147475 -41.135603 0.000000
vn 98.408797 -17.768193 0.000000
vn 98.408797 -17.768193 0.000000
vn 99.777768 6.663110 0.000000
vn 99.777768 6.663110 0.000000
vn 95.172419 30.695451 0.000000
vn 95.172419 30.695451 0.000000
vn 84.868501 52.889863 0.000000
vn 84.868501 52.889863 0.000000
vn 69.482974 71.917427 0.000000
vn 69.482974 71.917427 0.000000
vn 49.937066 86.638845 0.000000
vn 49.937066 86.638845 0.000000
vn 27.401113 96.172652 0.000000
vn 27.401113 96.172652 0.000000
vn 3.224483 99.948000 0.000000
vn 3.224483 99.948000 0.000000
vn -21.145216 97.738835 -0.000000
vn -21.145216 97.738835 -0.000000
vn -44.248819 89.677433 -0.000000
vn -44.248819 89.677433 -0.000000
vn -64.702967 76.246482 -0.000000
vn -64.702967 76.246482 -0.000000
vn 91.147475 -41.135603 0.000000
vn 91.147475 -41.135603 0.000000
vn -86.618195 49.972876 -0.000000
vn -86.618195 49.972876 -0.000000
vn -95.114016 30.875945 -0.000000
vn -95.114016 30.875945 -0.000000
vn -99.454574 10.430132 -0.000000
vn -99.454574 10.430132 -0.000000
vn -99.450244 -10.471345 0.000000
vn -99.450244 -10.471345 0.000000
vn -95.101213 -30.915358 0.000000
vn -95.101213 -30.915358 0.000000
vn -86.597479 -50.008766 0.000000
vn -86.597479 -50.008766 0.000000
vn -74.310546 -66.917433 0.000000
vn -74.310546 -66.917433 0.000000
vn -58.777195 -80.902666 0.000000
vn -58.777195 -80.902666 0.000000
vn -40.676034 -91.353490 0.000000
vn -40.676034 -91.353490 0.000000
vn -20.797853 -97.813339 0.000000
vn -20.797853 -97.813339 0.000000
vn -0.011072 -99.999999 0.000000
vn -0.011072 -99.999999 0.000000
vn 20.776192 -97.817942 0.000000
vn 20.776192 -97.817942 0.000000
vn 40.655803 -91.362496 0.000000
vn 40.655803 -91.362496 0.000000
vn 58.759278 -80.915680 0.000000
vn 58.759278 -80.915680 0.000000
vn 74.295725 -66.933887 0.000000
vn 74.295725 -66.933887 0.000000
vn 86.586402 -50.027942 0.000000
vn 86.586402 -50.027942 0.000000
vn 0.000000 0.000000 100.000000
vn 0.000000 0.000000 100.000000
vn 0.000000 0.000000 100.000000
vn 0.000000 0.000000 100.000000
vn 0.000000 0.000000 100.000000
vn 0.000000 0.000000 100.000000
vn 0.000000 0.000000 100.000000
vn 0.000000 0.000000 100.000000
vn 0.000000 0.000000 100.000000
vn 0.000000 0.000000 100.000000
vn 0.000000 0.000000 100.000000
vn 0.000000 0.000000 100.000000
vn 0.000000 0.000000 100.000000
vn 0.000000 0.000000 100.000000
vn 0.000000 0.000000 100.000000
vn 0.000000 0.000000 100.000000
vn 0.000000 0.000000 100.000000
vn 0.000000 0.000000 100.000000
vn 0.000000 0.000000 100.000000
vn 0.000000 0.000000 100.000000
vn 0.000000 0.000000 100.000000
vn 0.000000 0.000000 100.000000
vn 0.000000 0.000000 100.000000
vn 0.000000 0.000000 100.000000
vn 0.000000 0.000000 100.000000
vn 0.000000 0.000000 100.000000
vn 0.000000 0.000000 100.000000
vn 0.000000 0.000000 100.000000
vn 0.000000 0.000000 100.000000
vn 0.000000 0.000000 -100.000000
vn 0.000000 0.000000 -100.000000
vn 0.000000 0.000000 -100.000000
vn 0.000000 0.000000 -100.000000
vn 0.000000 0.000000 -100.000000
vn 0.000000 0.000000 -100.000000
vn 0.000000 0.000000 -100.000000
vn 0.000000 0.000000 -100.000000
vn 0.000000 0.000000 -100.000000
vn 0.000000 0.000000 -100.000000
vn 0.000000 0.000000 -100.000000
vn 0.000000 0.000000 -100.000000
vn 0.000000 0.000000 -100.000000
vn 0.000000 0.000000 -100.000000
vn 0.000000 0.000000 -100.000000
vn 0.000000 0.000000 -100.000000
vn 0.000000 0.000000 -100.000000
vn 0.000000 0.000000 -100.000000
vn 0.000000 0.000000 -100.000000
vn 0.000000 0.000000 -100.000000
vn 0.000000 0.000000 -100.000000
vn 0.000000 0.000000 -100.000000
vn 0.000000 0.000000 -100.000000
vn 0.000000 0.000000 -100.000000
vn 0.000000 0.000000 -100.000000
vn 0.000000 0.000000 -100.000000
vn 0.000000 0.000000 -100.000000
vn 0.000000 0.000000 -100.000000
vn 0.000000 0.000000 -100.000000
usemtl Steel_-_Satin
f 1/1/1 2/2/2 4/3/3
f 4/3/3 2/2/2 3/4/4
f 28/5/5 5/6/6 27/7/7
f 27/7/7 5/6/6 6/8/8
f 27/7/7 6/8/8 26/9/9
f 26/9/9 6/8/8 7/10/10
f 26/9/9 7/10/10 25/11/11
f 25/11/11 7/10/10 8/12/12
f 25/11/11 8/12/12 24/13/13
f 24/13/13 8/12/12 9/14/14
f 24/13/13 9/14/14 23/15/15
f 23/15/15 9/14/14 10/16/16
f 23/15/15 10/16/16 22/17/17
f 22/17/17 10/16/16 11/18/18
f 22/17/17 11/18/18 21/19/19
f 21/19/19 11/18/18 12/20/20
f 21/19/19 12/20/20 20/21/21
f 20/21/21 12/20/20 13/22/22
f 20/21/21 13/22/22 19/23/23
f 19/23/23 13/22/22 14/24/24
f 19/23/23 14/24/24 18/25/25
f 18/25/25 14/24/24 15/26/26
f 18/25/25 15/26/26 17/27/27
f 17/27/27 15/26/26 16/28/28
f 17/27/27 16/28/28 4/29/3
f 4/29/3 16/28/28 1/30/1
f 29/31/29 5/32/6 30/33/30
f 30/33/30 5/32/6 28/34/5
f 3/35/31 2/36/32 58/37/33
f 58/37/33 2/36/32 31/38/34
f 58/37/33 31/38/34 32/39/35
f 58/37/33 32/39/35 57/40/36
f 57/40/36 32/39/35 33/41/37
f 57/40/36 33/41/37 56/42/38
f 56/42/38 33/41/37 34/43/39
f 56/42/38 34/43/39 55/44/40
f 55/44/40 34/43/39 35/45/41
f 55/44/40 35/45/41 54/46/42
f 54/46/42 35/45/41 36/47/43
f 54/46/42 36/47/43 53/48/44
f 53/48/44 36/47/43 37/49/45
f 53/48/44 37/49/45 52/50/46
f 52/50/46 37/49/45 38/51/47
f 52/50/46 38/51/47 51/52/48
f 51/52/48 38/51/47 39/53/49
f 51/52/48 39/53/49 50/54/50
f 50/54/50 39/53/49 40/55/51
f 50/54/50 40/55/51 49/56/52
f 49/56/52 40/55/51 41/57/53
f 49/56/52 41/57/53 48/58/54
f 48/58/54 41/57/53 42/59/55
f 48/58/54 42/59/55 47/60/56
f 47/60/56 42/59/55 43/61/57
f 47/60/56 43/61/57 46/62/58
f 46/62/58 43/61/57 44/63/59
f 46/62/58 44/63/59 45/64/60
f 45/64/60 44/63/59 30/65/61
f 30/65/61 44/63/59 29/66/62
f 58/67/63 57/68/64 3/69/65
f 3/69/65 57/68/64 56/70/66
f 3/69/65 56/70/66 55/71/67
f 55/71/67 54/72/68 3/69/65
f 3/69/65 54/72/68 4/73/69
f 4/73/69 54/72/68 53/74/70
f 4/73/69 53/74/70 52/75/71
f 4/73/69 52/75/71 22/76/72
f 22/76/72 52/75/71 51/77/73
f 22/76/72 51/77/73 28/78/74
f 28/78/74 51/77/73 50/79/75
f 28/78/74 50/79/75 49/80/76
f 28/78/74 49/80/76 30/81/77
f 30/81/77 49/80/76 48/82/78
f 30/81/77 48/82/78 47/83/79
f 47/83/79 46/84/80 30/81/77
f 30/81/77 46/84/80 45/85/81
f 27/86/82 26/87/83 28/78/74
f 28/78/74 26/87/83 25/88/84
f 28/78/74 25/88/84 24/89/85
f 24/89/85 23/90/86 28/78/74
f 28/78/74 23/90/86 22/76/72
f 22/76/72 21/91/87 4/73/69
f 4/73/69 21/91/87 20/92/88
f 4/73/69 20/92/88 19/93/89
f 19/93/89 18/94/90 4/73/69
f 4/73/69 18/94/90 17/95/91
f 44/96/92 43/97/93 29/98/94
f 29/98/94 43/97/93 42/99/95
f 29/98/94 42/99/95 41/100/96
f 41/100/96 40/101/97 29/98/94
f 29/98/94 40/101/97 5/102/98
f 5/102/98 40/101/97 39/103/99
f 5/102/98 39/103/99 38/104/100
f 5/102/98 38/104/100 11/105/101
f 11/105/101 38/104/100 37/106/102
f 11/105/101 37/106/102 1/107/103
f 1/107/103 37/106/102 36/108/104
f 1/107/103 36/108/104 35/109/105
f 1/107/103 35/109/105 2/110/106
f 2/110/106 35/109/105 34/111/107
f 2/110/106 34/111/107 33/112/108
f 33/112/108 32/113/109 2/110/106
f 2/110/106 32/113/109 31/114/110
f 16/115/111 15/116/112 1/107/103
f 1/107/103 15/116/112 14/117/113
f 1/107/103 14/117/113 13/118/114
f 13/118/114 12/119/115 1/107/103
f 1/107/103 12/119/115 11/105/101
f 11/105/101 10/120/116 5/102/98
f 5/102/98 10/120/116 9/121/117
f 5/102/98 9/121/117 8/122/118
f 8/122/118 7/123/119 5/102/98
f 5/102/98 7/123/119 6/124/120
# 58 vertices
# 124 texture params
# 120 normals
# 112 facets

# 1 groups
