# WaveFront *.obj file (generated by Autodesk ATF)

mtllib 8a1dce96-5a7a-48bf-bd95-9987ffc445ca.mtl

g Body1

v 1.000000 0.150000 0.000000
v 0.000000 0.150000 0.000000
v 0.000000 0.150000 0.500000
v 1.000000 0.150000 0.500000
v 1.000000 -0.150000 0.000000
v 1.038823 -0.144889 0.000000
v 1.075000 -0.129904 0.000000
v 1.106066 -0.106066 0.000000
v 1.129904 -0.075000 0.000000
v 1.144889 -0.038823 0.000000
v 1.150000 0.000000 0.000000
v 1.144889 0.038823 0.000000
v 1.129904 0.075000 0.000000
v 1.106066 0.106066 0.000000
v 1.075000 0.129904 0.000000
v 1.038823 0.144889 0.000000
v 1.038823 0.144889 0.500000
v 1.075000 0.129904 0.500000
v 1.106066 0.106066 0.500000
v 1.129904 0.075000 0.500000
v 1.144889 0.038823 0.500000
v 1.150000 0.000000 0.500000
v 1.144889 -0.038823 0.500000
v 1.129904 -0.075000 0.500000
v 1.106066 -0.106066 0.500000
v 1.075000 -0.129904 0.500000
v 1.038823 -0.144889 0.500000
v 1.000000 -0.150000 0.500000
v 0.000000 -0.150000 0.000000
v 0.000000 -0.150000 0.500000
v -0.038823 0.144889 0.000000
v -0.075000 0.129904 0.000000
v -0.106066 0.106066 0.000000
v -0.129904 0.075000 0.000000
v -0.144889 0.038823 0.000000
v -0.150000 0.000000 0.000000
v -0.144889 -0.038823 0.000000
v -0.129904 -0.075000 0.000000
v -0.106066 -0.106066 0.000000
v -0.075000 -0.129904 0.000000
v -0.038823 -0.144889 0.000000
v -0.038823 -0.144889 0.500000
v -0.075000 -0.129904 0.500000
v -0.106066 -0.106066 0.500000
v -0.129904 -0.075000 0.500000
v -0.144889 -0.038823 0.500000
v -0.150000 0.000000 0.500000
v -0.144889 0.038823 0.500000
v -0.129904 0.075000 0.500000
v -0.106066 0.106066 0.500000
v -0.075000 0.129904 0.500000
v -0.038823 0.144889 0.500000
vt -0.000000 0.000000 0.000000
vt 100.000000 0.000000 0.000000
vt -0.000000 50.000000 0.000000
vt 100.000000 50.000000 0.000000
vt -50.000000 -23.561945 0.000000
vt -0.000000 -23.561945 0.000000
vt -50.000000 -19.634954 0.000000
vt -0.000000 -19.634954 0.000000
vt -50.000000 -15.707963 0.000000
vt -0.000000 -15.707963 0.000000
vt -50.000000 -11.780972 0.000000
vt -0.000000 -11.780972 0.000000
vt -50.000000 -7.853982 0.000000
vt -0.000000 -7.853982 0.000000
vt -50.000000 -3.926991 0.000000
vt -0.000000 -3.926991 0.000000
vt -50.000000 0.000000 0.000000
vt -0.000000 0.000000 0.000000
vt -50.000000 3.926991 0.000000
vt -0.000000 3.926991 0.000000
vt -50.000000 7.853982 0.000000
vt -0.000000 7.853982 0.000000
vt -50.000000 11.780972 0.000000
vt -0.000000 11.780972 0.000000
vt -50.000000 15.707963 0.000000
vt -0.000000 15.707963 0.000000
vt -50.000000 19.634954 0.000000
vt -0.000000 19.634954 0.000000
vt -50.000000 23.561945 0.000000
vt -0.000000 23.561945 0.000000
vt 0.000000 0.000000 0.000000
vt 100.000000 0.000000 0.000000
vt 0.000000 50.000000 0.000000
vt 100.000000 50.000000 0.000000
vt -50.000000 23.561945 0.000000
vt -0.000000 23.561945 0.000000
vt -50.000000 27.488936 0.000000
vt -0.000000 27.488936 0.000000
vt -50.000000 31.415927 0.000000
vt -0.000000 31.415927 0.000000
vt -50.000000 35.342917 0.000000
vt -0.000000 35.342917 0.000000
vt -50.000000 39.269908 0.000000
vt -0.000000 39.269908 0.000000
vt -50.000000 43.196899 0.000000
vt -0.000000 43.196899 0.000000
vt -50.000000 47.123890 0.000000
vt -0.000000 47.123890 0.000000
vt -50.000000 51.050881 0.000000
vt -0.000000 51.050881 0.000000
vt -50.000000 54.977871 0.000000
vt -0.000000 54.977871 0.000000
vt -50.000000 58.904862 0.000000
vt -0.000000 58.904862 0.000000
vt -50.000000 62.831853 0.000000
vt -0.000000 62.831853 0.000000
vt -50.000000 66.758844 0.000000
vt -0.000000 66.758844 0.000000
vt -50.000000 70.685835 0.000000
vt -0.000000 70.685835 0.000000
vt -53.882286 14.488887 0.000000
vt -57.500000 12.990381 0.000000
vt -50.000000 15.000000 0.000000
vt -60.606602 10.606602 0.000000
vt 62.990381 7.500000 0.000000
vt -62.990381 7.500000 0.000000
vt 64.488887 3.882286 0.000000
vt -64.488887 3.882286 0.000000
vt 65.000000 0.000000 0.000000
vt -65.000000 0.000000 0.000000
vt 64.488887 -3.882286 0.000000
vt -64.488887 -3.882286 0.000000
vt 62.990381 -7.500000 0.000000
vt -62.990381 -7.500000 0.000000
vt 60.606602 -10.606602 0.000000
vt 50.000000 -15.000000 0.000000
vt 57.500000 -12.990381 0.000000
vt 53.882286 -14.488887 0.000000
vt -60.606602 -10.606602 0.000000
vt -50.000000 -15.000000 0.000000
vt -57.500000 -12.990381 0.000000
vt -53.882286 -14.488887 0.000000
vt 60.606602 10.606602 0.000000
vt 50.000000 15.000000 0.000000
vt 57.500000 12.990381 0.000000
vt 53.882286 14.488887 0.000000
vt 53.882286 -14.488887 0.000000
vt 57.500000 -12.990381 0.000000
vt 50.000000 -15.000000 0.000000
vt 60.606602 -10.606602 0.000000
vt -62.990381 -7.500000 0.000000
vt 62.990381 -7.500000 0.000000
vt -64.488887 -3.882286 0.000000
vt 64.488887 -3.882286 0.000000
vt -65.000000 0.000000 0.000000
vt 65.000000 0.000000 0.000000
vt -64.488887 3.882286 0.000000
vt 64.488887 3.882286 0.000000
vt -62.990381 7.500000 0.000000
vt 62.990381 7.500000 0.000000
vt -60.606602 10.606602 0.000000
vt -50.000000 15.000000 0.000000
vt -57.500000 12.990381 0.000000
vt -53.882286 14.488887 0.000000
vt 60.606602 10.606602 0.000000
vt 50.000000 15.000000 0.000000
vt 57.500000 12.990381 0.000000
vt 53.882286 14.488887 0.000000
vt -60.606602 -10.606602 0.000000
vt -50.000000 -15.000000 0.000000
vt -57.500000 -12.990381 0.000000
vt -53.882286 -14.488887 0.000000
vn 0.000000 100.000000 0.000000
vn 0.000000 100.000000 0.000000
vn 0.000000 100.000000 0.000000
vn 0.000000 100.000000 0.000000
vn 0.000000 -100.000000 0.000000
vn 0.000000 -100.000000 0.000000
vn 25.881905 -96.592583 0.000000
vn 25.881905 -96.592583 0.000000
vn 50.000000 -86.602540 0.000000
vn 50.000000 -86.602540 0.000000
vn 70.710678 -70.710678 0.000000
vn 70.710678 -70.710678 0.000000
vn 86.602540 -50.000000 0.000000
vn 86.602540 -50.000000 0.000000
vn 96.592583 -25.881905 0.000000
vn 96.592583 -25.881905 0.000000
vn 100.000000 0.000000 0.000000
vn 100.000000 0.000000 0.000000
vn 96.592583 25.881905 0.000000
vn 96.592583 25.881905 0.000000
vn 86.602540 50.000000 0.000000
vn 86.602540 50.000000 0.000000
vn 70.710678 70.710678 0.000000
vn 70.710678 70.710678 0.000000
vn 50.000000 86.602540 0.000000
vn 50.000000 86.602540 0.000000
vn 25.881905 96.592583 0.000000
vn 25.881905 96.592583 0.000000
vn -0.000000 -100.000000 0.000000
vn -0.000000 -100.000000 0.000000
vn -25.881905 96.592583 -0.000000
vn -25.881905 96.592583 -0.000000
vn -50.000000 86.602540 -0.000000
vn -50.000000 86.602540 -0.000000
vn -70.710678 70.710678 -0.000000
vn -70.710678 70.710678 -0.000000
vn -86.602540 50.000000 -0.000000
vn -86.602540 50.000000 -0.000000
vn -96.592583 25.881905 -0.000000
vn -96.592583 25.881905 -0.000000
vn -100.000000 0.000000 -0.000000
vn -100.000000 0.000000 -0.000000
vn -96.592583 -25.881905 0.000000
vn -96.592583 -25.881905 0.000000
vn -86.602540 -50.000000 0.000000
vn -86.602540 -50.000000 0.000000
vn -70.710678 -70.710678 0.000000
vn -70.710678 -70.710678 0.000000
vn -50.000000 -86.602540 0.000000
vn -50.000000 -86.602540 0.000000
vn -25.881905 -96.592583 0.000000
vn -25.881905 -96.592583 0.000000
vn 0.000000 0.000000 100.000000
vn 0.000000 0.000000 100.000000
vn 0.000000 0.000000 100.000000
vn 0.000000 0.000000 100.000000
vn 0.000000 0.000000 100.000000
vn 0.000000 0.000000 100.000000
vn 0.000000 0.000000 100.000000
vn 0.000000 0.000000 100.000000
vn 0.000000 0.000000 100.000000
vn 0.000000 0.000000 100.000000
vn 0.000000 0.000000 100.000000
vn 0.000000 0.000000 100.000000
vn 0.000000 0.000000 100.000000
vn 0.000000 0.000000 100.000000
vn 0.000000 0.000000 100.000000
vn 0.000000 0.000000 100.000000
vn 0.000000 0.000000 100.000000
vn 0.000000 0.000000 100.000000
vn 0.000000 0.000000 100.000000
vn 0.000000 0.000000 100.000000
vn 0.000000 0.000000 100.000000
vn 0.000000 0.000000 100.000000
vn 0.000000 0.000000 100.000000
vn 0.000000 0.000000 100.000000
vn 0.000000 0.000000 100.000000
vn 0.000000 0.000000 100.000000
vn 0.000000 0.000000 -100.000000
vn 0.000000 0.000000 -100.000000
vn 0.000000 0.000000 -100.000000
vn 0.000000 0.000000 -100.000000
vn 0.000000 0.000000 -100.000000
vn 0.000000 0.000000 -100.000000
vn 0.000000 0.000000 -100.000000
vn 0.000000 0.000000 -100.000000
vn 0.000000 0.000000 -100.000000
vn 0.000000 0.000000 -100.000000
vn 0.000000 0.000000 -100.000000
vn 0.000000 0.000000 -100.000000
vn 0.000000 0.000000 -100.000000
vn 0.000000 0.000000 -100.000000
vn 0.000000 0.000000 -100.000000
vn 0.000000 0.000000 -100.000000
vn 0.000000 0.000000 -100.000000
vn 0.000000 0.000000 -100.000000
vn 0.000000 0.000000 -100.000000
vn 0.000000 0.000000 -100.000000
vn 0.000000 0.000000 -100.000000
vn 0.000000 0.000000 -100.000000
vn 0.000000 0.000000 -100.000000
vn 0.000000 0.000000 -100.000000
vn 0.000000 0.000000 -100.000000
vn 0.000000 0.000000 -100.000000
usemtl Steel_-_Satin
f 1/1/1 2/2/2 4/3/3
f 4/3/3 2/2/2 3/4/4
f 28/5/5 5/6/6 27/7/7
f 27/7/7 5/6/6 6/8/8
f 27/7/7 6/8/8 26/9/9
f 26/9/9 6/8/8 7/10/10
f 26/9/9 7/10/10 25/11/11
f 25/11/11 7/10/10 8/12/12
f 25/11/11 8/12/12 24/13/13
f 24/13/13 8/12/12 9/14/14
f 24/13/13 9/14/14 23/15/15
f 23/15/15 9/14/14 10/16/16
f 23/15/15 10/16/16 22/17/17
f 22/17/17 10/16/16 11/18/18
f 22/17/17 11/18/18 21/19/19
f 21/19/19 11/18/18 12/20/20
f 21/19/19 12/20/20 20/21/21
f 20/21/21 12/20/20 13/22/22
f 20/21/21 13/22/22 19/23/23
f 19/23/23 13/22/22 14/24/24
f 19/23/23 14/24/24 18/25/25
f 18/25/25 14/24/24 15/26/26
f 18/25/25 15/26/26 17/27/27
f 17/27/27 15/26/26 16/28/28
f 17/27/27 16/28/28 4/29/3
f 4/29/3 16/28/28 1/30/1
f 29/31/29 5/32/6 30/33/30
f 30/33/30 5/32/6 28/34/5
f 3/35/4 2/36/2 52/37/31
f 52/37/31 2/36/2 31/38/32
f 52/37/31 31/38/32 51/39/33
f 51/39/33 31/38/32 32/40/34
f 51/39/33 32/40/34 50/41/35
f 50/41/35 32/40/34 33/42/36
f 50/41/35 33/42/36 49/43/37
f 49/43/37 33/42/36 34/44/38
f 49/43/37 34/44/38 48/45/39
f 48/45/39 34/44/38 35/46/40
f 48/45/39 35/46/40 47/47/41
f 47/47/41 35/46/40 36/48/42
f 47/47/41 36/48/42 46/49/43
f 46/49/43 36/48/42 37/50/44
f 46/49/43 37/50/44 45/51/45
f 45/51/45 37/50/44 38/52/46
f 45/51/45 38/52/46 44/53/47
f 44/53/47 38/52/46 39/54/48
f 44/53/47 39/54/48 43/55/49
f 43/55/49 39/54/48 40/56/50
f 43/55/49 40/56/50 42/57/51
f 42/57/51 40/56/50 41/58/52
f 42/57/51 41/58/52 30/59/30
f 30/59/30 41/58/52 29/60/29
f 52/61/53 51/62/54 3/63/55
f 3/63/55 51/62/54 50/64/56
f 3/63/55 50/64/56 20/65/57
f 20/65/57 50/64/56 49/66/58
f 20/65/57 49/66/58 21/67/59
f 21/67/59 49/66/58 48/68/60
f 21/67/59 48/68/60 22/69/61
f 22/69/61 48/68/60 47/70/62
f 22/69/61 47/70/62 23/71/63
f 23/71/63 47/70/62 46/72/64
f 23/71/63 46/72/64 24/73/65
f 24/73/65 46/72/64 45/74/66
f 24/73/65 45/74/66 25/75/67
f 25/75/67 45/74/66 28/76/68
f 25/75/67 28/76/68 26/77/69
f 26/77/69 28/76/68 27/78/70
f 45/74/66 44/79/71 28/76/68
f 28/76/68 44/79/71 30/80/72
f 30/80/72 44/79/71 43/81/73
f 30/80/72 43/81/73 42/82/74
f 20/65/57 19/83/75 3/63/55
f 3/63/55 19/83/75 4/84/76
f 4/84/76 19/83/75 18/85/77
f 4/84/76 18/85/77 17/86/78
f 41/87/79 40/88/80 29/89/81
f 29/89/81 40/88/80 39/90/82
f 29/89/81 39/90/82 9/91/83
f 9/91/83 39/90/82 38/92/84
f 9/91/83 38/92/84 10/93/85
f 10/93/85 38/92/84 37/94/86
f 10/93/85 37/94/86 11/95/87
f 11/95/87 37/94/86 36/96/88
f 11/95/87 36/96/88 12/97/89
f 12/97/89 36/96/88 35/98/90
f 12/97/89 35/98/90 13/99/91
f 13/99/91 35/98/90 34/100/92
f 13/99/91 34/100/92 14/101/93
f 14/101/93 34/100/92 1/102/94
f 14/101/93 1/102/94 15/103/95
f 15/103/95 1/102/94 16/104/96
f 34/100/92 33/105/97 1/102/94
f 1/102/94 33/105/97 2/106/98
f 2/106/98 33/105/97 32/107/99
f 2/106/98 32/107/99 31/108/100
f 9/91/83 8/109/101 29/89/81
f 29/89/81 8/109/101 5/110/102
f 5/110/102 8/109/101 7/111/103
f 5/110/102 7/111/103 6/112/104
# 52 vertices
# 112 texture params
# 104 normals
# 100 facets

# 1 groups
